<svg xmlns="http://www.w3.org/2000/svg" width="23.467" height="22" viewBox="0 0 23.467 22">
  <g id="excel" transform="translate(0 0)">
    <g id="Group_1548" data-name="Group 1548">
      <g id="Group_1547" data-name="Group 1547">
        <path id="Path_4106" data-name="Path 4106" d="M12.935,16.178a.738.738,0,0,0-.6-.155L.6,18.222a.731.731,0,0,0-.6.72V35.076a.732.732,0,0,0,.6.72L12.332,38a.7.7,0,0,0,.135.013.733.733,0,0,0,.733-.733V16.742A.731.731,0,0,0,12.935,16.178Zm-1.2,20.214L1.467,34.468V19.551l10.267-1.924Z" transform="translate(0 -16.01)" fill="#444"/>
      </g>
    </g>
    <g id="Group_1550" data-name="Group 1550" transform="translate(11.734 2.933)">
      <g id="Group_1549" data-name="Group 1549">
        <path id="Path_4107" data-name="Path 4107" d="M267,79.99H256.733a.733.733,0,1,0,0,1.467h9.534v13.2h-9.534a.733.733,0,1,0,0,1.467H267a.734.734,0,0,0,.733-.733V80.723A.734.734,0,0,0,267,79.99Z" transform="translate(-256 -79.99)" fill="#444"/>
      </g>
    </g>
    <g id="Group_1552" data-name="Group 1552" transform="translate(11.734 5.866)">
      <g id="Group_1551" data-name="Group 1551">
        <path id="Path_4108" data-name="Path 4108" d="M259.667,143.99h-2.933a.733.733,0,1,0,0,1.467h2.933a.733.733,0,0,0,0-1.467Z" transform="translate(-256 -143.99)" fill="#444"/>
      </g>
    </g>
    <g id="Group_1554" data-name="Group 1554" transform="translate(11.734 8.799)">
      <g id="Group_1553" data-name="Group 1553">
        <path id="Path_4109" data-name="Path 4109" d="M259.667,207.99h-2.933a.733.733,0,1,0,0,1.467h2.933a.733.733,0,0,0,0-1.467Z" transform="translate(-256 -207.99)" fill="#444"/>
      </g>
    </g>
    <g id="Group_1556" data-name="Group 1556" transform="translate(11.734 11.733)">
      <g id="Group_1555" data-name="Group 1555">
        <path id="Path_4110" data-name="Path 4110" d="M259.667,271.99h-2.933a.733.733,0,1,0,0,1.467h2.933a.733.733,0,0,0,0-1.467Z" transform="translate(-256 -271.99)" fill="#444"/>
      </g>
    </g>
    <g id="Group_1558" data-name="Group 1558" transform="translate(11.734 14.666)">
      <g id="Group_1557" data-name="Group 1557">
        <path id="Path_4111" data-name="Path 4111" d="M259.667,335.99h-2.933a.733.733,0,1,0,0,1.467h2.933a.733.733,0,0,0,0-1.467Z" transform="translate(-256 -335.99)" fill="#444"/>
      </g>
    </g>
    <g id="Group_1560" data-name="Group 1560" transform="translate(17.601 5.866)">
      <g id="Group_1559" data-name="Group 1559">
        <path id="Path_4112" data-name="Path 4112" d="M386.2,143.99h-1.467a.733.733,0,1,0,0,1.467H386.2a.733.733,0,1,0,0-1.467Z" transform="translate(-384 -143.99)" fill="#444"/>
      </g>
    </g>
    <g id="Group_1562" data-name="Group 1562" transform="translate(17.601 8.799)">
      <g id="Group_1561" data-name="Group 1561">
        <path id="Path_4113" data-name="Path 4113" d="M386.2,207.99h-1.467a.733.733,0,1,0,0,1.467H386.2a.733.733,0,1,0,0-1.467Z" transform="translate(-384 -207.99)" fill="#444"/>
      </g>
    </g>
    <g id="Group_1564" data-name="Group 1564" transform="translate(17.601 11.733)">
      <g id="Group_1563" data-name="Group 1563">
        <path id="Path_4114" data-name="Path 4114" d="M386.2,271.99h-1.467a.733.733,0,1,0,0,1.467H386.2a.733.733,0,1,0,0-1.467Z" transform="translate(-384 -271.99)" fill="#444"/>
      </g>
    </g>
    <g id="Group_1566" data-name="Group 1566" transform="translate(17.601 14.666)">
      <g id="Group_1565" data-name="Group 1565">
        <path id="Path_4115" data-name="Path 4115" d="M386.2,335.99h-1.467a.733.733,0,1,0,0,1.467H386.2a.733.733,0,1,0,0-1.467Z" transform="translate(-384 -335.99)" fill="#444"/>
      </g>
    </g>
    <g id="Group_1568" data-name="Group 1568" transform="translate(3.667 7.332)">
      <g id="Group_1567" data-name="Group 1567">
        <path id="Path_4116" data-name="Path 4116" d="M86.424,182.1l-5.134-5.867a.733.733,0,0,0-1.1.965l5.134,5.867a.733.733,0,0,0,1.1-.965Z" transform="translate(-80.004 -175.984)" fill="#444"/>
      </g>
    </g>
    <g id="Group_1570" data-name="Group 1570" transform="translate(3.667 6.599)">
      <g id="Group_1569" data-name="Group 1569">
        <path id="Path_4117" data-name="Path 4117" d="M86.317,160.147a.733.733,0,0,0-1.03.128l-5.134,6.6a.734.734,0,0,0,1.157.9l5.134-6.6A.733.733,0,0,0,86.317,160.147Z" transform="translate(-79.999 -159.992)" fill="#444"/>
      </g>
    </g>
  </g>
</svg>
