<svg xmlns="http://www.w3.org/2000/svg" width="25.514" height="23.691" viewBox="0 0 25.514 23.691">
  <path id="Icon_ionic-ios-star" data-name="Icon ionic-ios-star" d="M26.8,11.576H18.418l-2.546-7.6a.922.922,0,0,0-1.731,0l-2.546,7.6H3.161a.914.914,0,0,0-.911.911.67.67,0,0,0,.017.154.875.875,0,0,0,.382.644l6.885,4.852L6.891,25.819A.914.914,0,0,0,7.2,26.844a.881.881,0,0,0,.513.222,1.116,1.116,0,0,0,.569-.205l6.72-4.789,6.72,4.789a1.067,1.067,0,0,0,.569.205.818.818,0,0,0,.507-.222.9.9,0,0,0,.313-1.025l-2.642-7.683,6.828-4.9.165-.142a.955.955,0,0,0,.3-.609A.964.964,0,0,0,26.8,11.576Z" transform="translate(-2.25 -3.375)" fill="#f7f7f7"/>
</svg>
