<svg xmlns="http://www.w3.org/2000/svg" width="26.653" height="23.691" viewBox="0 0 26.653 23.691">
  <path id="Icon_awesome-boxes" data-name="Icon awesome-boxes" d="M25.912,13.326h-3.7v4.442l-1.481-.986-1.481.986V13.326h-3.7a.743.743,0,0,0-.74.74v8.884a.743.743,0,0,0,.74.74H25.912a.743.743,0,0,0,.74-.74V14.067A.743.743,0,0,0,25.912,13.326ZM8.144,10.365H18.509a.743.743,0,0,0,.74-.74V.74a.743.743,0,0,0-.74-.74h-3.7V4.442l-1.481-.986-1.481.986V0h-3.7A.743.743,0,0,0,7.4.74V9.625A.743.743,0,0,0,8.144,10.365Zm2.961,2.961H7.4v4.442l-1.481-.986-1.481.986V13.326H.74a.743.743,0,0,0-.74.74v8.884a.743.743,0,0,0,.74.74H11.105a.743.743,0,0,0,.74-.74V14.067A.743.743,0,0,0,11.105,13.326Z" fill="#f8edf4"/>
</svg>
