<svg xmlns="http://www.w3.org/2000/svg" width="20.975" height="20.975" viewBox="0 0 20.975 20.975">
  <path id="Icon_awesome-history" data-name="Icon awesome-history" d="M21.538,11.03a10.488,10.488,0,0,1-17.07,8.185A1.014,1.014,0,0,1,4.39,17.71l.476-.476a1.017,1.017,0,0,1,1.349-.084,7.782,7.782,0,1,0-.5-11.769L7.865,7.527a.677.677,0,0,1-.478,1.155H1.239a.677.677,0,0,1-.677-.677V1.858a.677.677,0,0,1,1.155-.478L3.805,3.467A10.488,10.488,0,0,1,21.538,11.03Zm-7.651,3.332.415-.534a1.015,1.015,0,0,0-.178-1.424L12.4,11.065V6.652a1.015,1.015,0,0,0-1.015-1.015h-.677A1.015,1.015,0,0,0,9.7,6.652v5.737l2.766,2.151a1.015,1.015,0,0,0,1.424-.178Z" transform="translate(-0.563 -0.563)" fill="#f7f7f7"/>
</svg>
