<svg xmlns="http://www.w3.org/2000/svg" width="125.636" height="117.031" viewBox="0 0 125.636 117.031">
  <g id="No_Database-03" data-name="No Database-03" transform="translate(-1 -1.9)">
    <path id="Path_1" data-name="Path 1" d="M13.179,20.989a4.525,4.525,0,0,1-4.589,4.589A4.525,4.525,0,0,1,4,20.989,4.935,4.935,0,0,1,8.589,16.4C11.458,16.974,13.179,18.695,13.179,20.989Z" transform="translate(14.21 68.684)" fill="#e5e5e5"/>
    <path id="Path_2" data-name="Path 2" d="M12.705,11.789a4.525,4.525,0,0,1-4.589,4.589c-2.295,0-4.016-2.295-4.016-4.589A4.935,4.935,0,0,1,8.689,7.2C10.984,7.2,12.705,9.495,12.705,11.789Z" transform="translate(14.684 25.105)" fill="#e5e5e5"/>
    <path id="Path_3" data-name="Path 3" d="M13.179,16.389a4.525,4.525,0,0,1-4.589,4.589A4.935,4.935,0,0,1,4,16.389,4.935,4.935,0,0,1,8.589,11.8C11.458,12.374,13.179,14.095,13.179,16.389Z" transform="translate(14.21 46.894)" fill="#e5e5e5"/>
    <g id="Group_1" data-name="Group 1" transform="translate(1 1.9)">
      <path id="Path_4" data-name="Path 4" d="M57.794,107.457a12.54,12.54,0,0,1,1.721-2.868l2.295-4.016H44.6a122.529,122.529,0,0,1-28.684-3.442c-2.295-.574-4.589-1.721-6.884-2.295-1.147-.574-1.147-1.147-1.147-2.295V74.757A49.613,49.613,0,0,0,21.079,78.2c5.163.574,10.9,1.721,16.063,1.721,8.605.574,17.784,1.147,26.389.574,3.442,0,6.884-.574,10.326-.574l4.016-6.884c-2.295,0-4.589.574-7.458.574-9.179.574-17.784.574-26.963.574-9.753-.574-18.931-1.147-28.684-3.442-2.295-.574-4.589-1.721-6.884-2.295-1.147-.574-1.147-1.147-1.147-2.295V48.368c3.442,1.147,6.884,1.721,10.326,2.868,6.884,1.721,13.768,2.295,20.079,2.868,8.605.574,17.784.574,26.389.574,10.326-.574,20.653-1.147,30.979-4.016,1.721-.574,4.016-1.147,5.737-1.721v10.9a9.74,9.74,0,0,1,3.442,3.442l3.442,5.163v-54.5c-1.147-2.868-3.442-4.589-6.31-5.737A124.592,124.592,0,0,0,87.052,4.195C79.021,3.047,70.989,2.474,62.384,1.9H47.468a19.516,19.516,0,0,0-5.737.574A125.421,125.421,0,0,0,21.079,4.195C16.489,4.768,11.326,5.916,7.31,8.21A12.54,12.54,0,0,0,4.442,9.932,6.31,6.31,0,0,0,1,15.668V93.115a7.061,7.061,0,0,0,2.868,5.737,57.9,57.9,0,0,0,8.605,4.016,112.879,112.879,0,0,0,20.079,3.442,124.11,124.11,0,0,0,25.242,1.147ZM15.342,12.226a143.469,143.469,0,0,1,21.8-3.442c9.179-.574,17.784-.574,26.389-.574,9.753.574,20.079,1.147,29.258,4.016,2.295.574,4.016,1.147,5.737,1.721a2,2,0,0,1,1.147.574v.574c-1.721.574-2.868,1.147-4.589,1.721a91.469,91.469,0,0,1-17.21,3.442,230.177,230.177,0,0,1-34.421,1.147c-9.753-.574-18.931-1.147-28.684-3.442a23.975,23.975,0,0,1-5.737-2.295c-.574,0-.574-.574-1.147-.574A24.576,24.576,0,0,1,15.342,12.226Zm-7.458,10.9V21.979c1.721.574,4.016,1.147,5.737,1.721a94.491,94.491,0,0,0,18.358,3.442c8.605.574,17.21,1.147,25.816,1.147,10.9,0,21.8-.574,32.7-2.868a69.36,69.36,0,0,0,10.326-2.868V40.337c0,1.147-.574,1.721-1.147,1.721-2.295,1.147-5.163,1.721-7.458,2.868-6.884,1.721-13.768,2.295-20.653,2.868-9.753,0-18.931.574-27.537,0-9.753-.574-18.931-1.147-28.11-3.442-2.295-.574-4.589-1.721-6.884-2.295-1.147-.574-1.147-1.147-1.147-2.295Z" transform="translate(-1 -1.9)" fill="#e5e5e5"/>
    </g>
    <path id="Path_5" data-name="Path 5" d="M75.834,63.084c-.574,1.147-.574,1.721-1.147,2.868-1.147,1.147-2.295,2.295-4.016,2.295H17.892A6.31,6.31,0,0,1,12.155,64.8a7.96,7.96,0,0,1,0-5.163c.574-1.147,1.721-2.868,2.295-4.016,8.032-13.195,16.063-26.389,24.095-40.158A6.025,6.025,0,0,1,43.708,12.6,7.082,7.082,0,0,1,48.3,14.895a42.79,42.79,0,0,1,4.016,6.884c7.458,12.047,14.916,24.095,21.8,36.716.574.574.574,1.721,1.147,2.868A2.108,2.108,0,0,1,75.834,63.084Zm-32.7,1.147H70.1c1.147,0,1.721-1.147,1.147-2.295a.562.562,0,0,0-.574-.574c-8.605-13.768-16.637-28.11-25.242-41.879-.574-.574-.574-1.147-1.147-1.721-.574-1.147-1.721-1.147-2.868,0a.562.562,0,0,1-.574.574L15.024,61.363l-.574.574c-.574,1.147,0,1.721,1.147,2.295H43.134Z" transform="translate(50.802 50.684)" fill="#e5e5e5"/>
    <path id="Path_6" data-name="Path 6" d="M21.963,25.638V33.67c0,1.147-.574,1.147-1.147,1.721s-1.721,0-2.295,0-1.147-.574-1.147-1.721c0-5.163-.574-10.326-.574-15.489,0-1.147.574-2.295,1.721-2.295a2.759,2.759,0,0,1,3.442,1.147c0,.574.574,1.147.574,1.721-.574,1.721-.574,4.589-.574,6.884Z" transform="translate(74.842 65.182)" fill="#e5e5e5"/>
    <path id="Path_7" data-name="Path 7" d="M16.7,22.468A2.71,2.71,0,0,1,19.568,19.6a2.71,2.71,0,0,1,2.868,2.868,2.71,2.71,0,0,1-2.868,2.868A3.073,3.073,0,0,1,16.7,22.468Z" transform="translate(74.368 83.842)" fill="#e5e5e5"/>
  </g>
</svg>
